<svg width="91" height="40" viewBox="0 0 91 40" fill="none" xmlns="http://www.w3.org/2000/svg">
<g id="Group 1000004902">
<path id="Graph" d="M4.71094 34.8382C5.33019 33.8044 6.53773 32.0126 8.27163 32.4261C10.439 32.943 11.6775 34.8382 12.916 32.4261C16.5698 25.3102 18.0069 32.7564 23.1337 28.2912C29.3379 22.8875 28.6624 23.7112 29.0166 25.5346C30.992 35.7048 37.5304 21.0489 39.2342 24.6731C40.3498 27.0461 42.5136 19.5647 43.7502 21.3996C44.6791 22.778 45.4267 25.5346 47.2845 25.5346C49.1422 25.5346 52.1395 22.778 54.1521 20.7105C56.1646 18.643 57.3473 22.6057 57.8118 23.6394C58.2762 24.6731 61.6821 22.6057 63.5398 20.0213C65.026 17.9539 66.5329 20.9976 67.1005 22.778C69.4772 21.8963 76.9992 15.4011 77.9374 19.1599C79.3824 17.9539 85.2258 9.51173 85.9999 5.03223" stroke="#FE880E" stroke-opacity="0.2" stroke-width="9" stroke-linecap="round" stroke-linejoin="round"/>
<path id="Graph_2" d="M4.71094 34.8382C5.33019 33.8044 6.53773 32.0126 8.27163 32.4261C10.439 32.943 11.6775 34.8382 12.916 32.4261C16.5698 25.3102 18.0069 32.7564 23.1337 28.2912C29.3379 22.8875 28.6624 23.7112 29.0166 25.5346C30.992 35.7048 37.5304 21.0489 39.2342 24.6731C40.3498 27.0461 42.5136 19.5647 43.7502 21.3996C44.6791 22.778 45.4267 25.5346 47.2845 25.5346C49.1422 25.5346 52.1395 22.778 54.1521 20.7105C56.1646 18.643 57.3473 22.6057 57.8118 23.6394C58.2762 24.6731 61.6821 22.6057 63.5398 20.0213C65.026 17.9539 66.5329 20.9976 67.1005 22.778C69.4772 21.8963 76.9992 15.4011 77.9374 19.1599C79.3824 17.9539 85.2258 9.51173 85.9999 5.03223" stroke="#FF4D00" stroke-width="2" stroke-linecap="round" stroke-linejoin="round"/>
<path id="Vector" d="M3.58118 12.1118L8.38176 7.29504V16.9286H10.6182V7.29504L15.4188 12.1118L17 10.5253L9.5 3L2 10.5253L3.58118 12.1118Z" fill="#222222"/>
</g>
</svg>
