<svg width="254" height="93" viewBox="0 0 254 93" fill="none" xmlns="http://www.w3.org/2000/svg">
<g id="Group 1000004928">
<g id="Group 1000004927">
<path id="Vector" d="M100.23 38.2348L103.555 19.4276H108.219L107.798 21.6829C109.903 19.1603 111.851 18.9297 113.879 18.9297H114.527L113.649 24.015C113.194 23.9378 112.733 23.8987 112.272 23.8978C109.215 23.8978 107.454 25.4282 106.919 28.4486L105.199 38.2348H100.23Z" fill="white"/>
<path id="Vector_2" d="M123.358 38.2348C123.311 37.9701 123.285 37.702 123.281 37.4331C123.29 37.1389 123.316 36.8456 123.358 36.5544C121.673 38.0109 119.507 38.7875 117.281 38.7327C113.535 38.7327 111.814 37.012 111.814 34.4492C111.814 28.8697 115.75 27.6468 121.754 26.8414C125.156 26.3838 125.309 25.7431 125.309 24.7033C125.309 23.0961 124.237 22.7519 122.443 22.7519C120.184 22.7519 119.078 23.8502 118.58 25.5417H113.956C114.718 21.6426 117.317 18.9297 123.358 18.9297C128.366 18.9297 130.278 20.8042 130.278 24.2054C130.267 24.923 130.203 25.6389 130.087 26.3471L127.986 38.2348H123.358ZM124.621 29.0234C124.046 29.5177 123.127 29.7849 121.216 30.1218C117.661 30.7735 116.936 31.729 116.936 33.4864C116.936 34.6726 117.855 35.1705 119.155 35.1705C121.56 35.1705 123.816 33.296 124.237 31.0773L124.621 29.0234Z" fill="white"/>
<path id="Vector_3" d="M144.268 26.1541C144.268 25.9637 144.308 25.8099 144.308 25.6196C144.308 23.7487 142.968 23.0568 141.247 23.0568C138.611 23.0568 136.279 25.0045 136.279 30.1667C136.279 33.491 137.465 34.56 139.069 34.56C141.02 34.56 142.73 33.4617 143.276 31.4224H148.284C147.64 33.5407 146.331 35.395 144.551 36.7107C142.77 38.0263 140.613 38.7331 138.399 38.7264C134.042 38.7264 131.289 36.0501 131.289 30.8879C131.289 22.8334 135.723 18.9233 142.031 18.9233C146.582 18.9233 149.335 21.3324 149.335 25.2315C149.341 25.5396 149.326 25.8479 149.291 26.1541H144.268Z" fill="white"/>
<path id="Vector_4" d="M154.473 30.1291V31.0078C154.473 33.6841 155.732 34.7934 157.914 34.7934C159.518 34.7934 161.085 33.9916 161.66 32.6919H166.785C164.955 36.5544 161.473 38.7327 157.457 38.7327C152.181 38.7327 149.545 36.0565 149.545 30.9712C149.545 23.7075 153.902 18.9297 160.631 18.9297C165.372 18.9297 167.818 21.4522 167.818 26.4606C167.807 27.6886 167.692 28.9133 167.473 30.1218L154.473 30.1291ZM162.919 26.9952C162.98 26.6164 163.006 26.2328 162.996 25.8492C162.996 23.4402 161.469 22.8654 159.785 22.8654C157.263 22.8654 155.758 24.663 155.044 26.9952H162.919Z" fill="white"/>
<path id="Vector_5" d="M184.288 31.2025C183.556 35.1785 180.693 38.7335 175.381 38.7335C170.716 38.7335 168.882 36.211 168.882 32.9599C168.877 32.3572 168.928 31.7553 169.036 31.1623L171.965 14.343H176.856L175.978 19.4283H186.375L185.764 22.943H175.366L173.99 30.6644C173.89 31.1561 173.838 31.6563 173.836 32.1581C173.836 33.8019 174.601 34.4133 176.208 34.4133C178.119 34.4133 179.342 33.0734 179.763 30.7522L180.602 25.8609H185.229L184.288 31.2025Z" fill="white"/>
<path id="Vector_6" d="M185.092 38.2348L188.416 19.4276H193.08L192.659 21.6829C194.761 19.1603 196.712 18.9297 198.737 18.9297H199.389L198.51 24.015C198.055 23.938 197.595 23.8988 197.133 23.8978C194.076 23.8978 192.315 25.4282 191.781 28.4486L190.06 38.2348H185.092Z" fill="white"/>
<path id="Vector_7" d="M208.234 38.2348C208.185 37.9704 208.159 37.7021 208.157 37.4331C208.164 37.1388 208.19 36.8454 208.234 36.5544C206.549 38.0109 204.382 38.7875 202.156 38.7327C198.407 38.7327 196.687 37.012 196.687 34.4492C196.687 28.8697 200.626 27.6468 206.626 26.8414C210.031 26.3838 210.181 25.7431 210.181 24.7033C210.181 23.0961 209.112 22.7519 207.315 22.7519C205.06 22.7519 203.95 23.8502 203.456 25.5417H198.814C199.579 21.6426 202.178 18.9297 208.219 18.9297C213.228 18.9297 215.139 20.8042 215.139 24.2054C215.128 24.923 215.065 25.6389 214.948 26.3471L212.843 38.2348H208.234ZM209.493 29.0234C208.922 29.5177 208.003 29.7849 206.092 30.1218C202.537 30.7735 201.812 31.729 201.812 33.4864C201.812 34.6726 202.727 35.1705 204.027 35.1705C206.436 35.1705 208.691 33.296 209.112 31.0773L209.493 29.0234Z" fill="white"/>
<path id="Vector_8" d="M229.128 26.1541C229.128 25.9637 229.165 25.8099 229.165 25.6196C229.165 23.7487 227.828 23.0568 226.108 23.0568C223.472 23.0568 221.14 25.0045 221.14 30.1667C221.14 33.491 222.322 34.56 223.929 34.56C225.881 34.56 227.59 33.4617 228.136 31.4225H233.13C232.486 33.541 231.177 35.3957 229.397 36.7114C227.616 38.0271 225.459 38.7337 223.245 38.7264C218.888 38.7264 216.135 36.0501 216.135 30.8879C216.135 22.8334 220.568 18.9233 226.877 18.9233C231.424 18.9233 234.177 21.3324 234.177 25.2315C234.183 25.537 234.171 25.8427 234.14 26.1468L229.128 26.1541Z" fill="white"/>
<path id="Vector_9" d="M245.106 38.2355L242.43 29.6355L239.501 32.2715L238.418 38.2355H233.409L237.92 12.5453H242.928L240.559 26.2306L247.775 19.4282H253.999L246.468 26.3478L250.536 38.2355H245.106Z" fill="white"/>
<path id="Vector_10" d="M113.631 70.3916L116.955 51.5843H121.927L118.599 70.3916H113.631ZM117.34 49.3291L118.141 44.7014H123.11L122.308 49.3291H117.34Z" fill="#FF4D00"/>
<path id="Vector_11" d="M132.896 70.3911L134.921 59.0013C135.023 58.4716 135.074 57.9335 135.074 57.3941C135.074 55.7136 134.236 55.2926 132.361 55.2926C129.762 55.2926 128.232 56.757 127.734 59.6127L125.823 70.3911H120.854L124.179 51.5839H128.938L128.422 54.3443C129.952 52.2392 132.054 51.0933 135.074 51.0933C138.212 51.0933 140.313 52.7774 140.313 55.9113C140.311 56.4016 140.273 56.891 140.2 57.3758L137.904 70.4094L132.896 70.3911Z" fill="#FF4D00"/>
<path id="Vector_12" d="M153.682 57.2731C153.682 55.3217 152.95 54.7872 150.775 54.7872C148.52 54.7872 147.374 55.2851 147.374 56.5848C147.374 57.5001 148.33 57.998 150.087 58.4959C155.44 60.0226 157.812 60.1764 157.812 64.2293C157.812 67.9746 154.33 70.8816 148.293 70.8816C143.362 70.8816 140.418 68.7398 140.418 65.3386C140.425 65.0055 140.451 64.673 140.495 64.3428H145.62C145.587 64.5325 145.574 64.7251 145.58 64.9176C145.58 66.4479 146.92 67.1362 148.908 67.1362C150.896 67.1362 152.69 66.4845 152.69 64.9945C152.69 63.962 151.775 63.4641 150.054 63.0431C144.053 61.6665 142.446 60.0629 142.446 56.8191C142.446 54.0696 144.969 51.0858 151.599 51.0858C156.49 51.0858 158.555 52.9969 158.555 56.248C158.55 56.5934 158.524 56.9381 158.478 57.2804L153.682 57.2731Z" fill="#FF4D00"/>
<path id="Vector_13" d="M158.238 70.3916L161.563 51.5843H166.534L163.203 70.3916H158.238ZM161.947 49.3291L162.749 44.7014H167.721L166.915 49.3291H161.947Z" fill="#FF4D00"/>
<path id="Vector_14" d="M179.034 67.8684C178.042 69.5489 175.823 70.5447 173.377 70.5447C168.292 70.5447 166.535 66.9898 166.535 63.0138C166.535 55.9405 171.503 51.0858 176.702 51.0858C179.07 51.0858 180.641 52.0048 181.461 53.9159L181.882 51.5837H186.854L183.489 70.5813C182.494 76.2415 177.829 79.2985 172.594 79.2985C167.893 79.2985 164.719 76.8895 164.719 72.8769C164.734 72.3856 164.785 71.8961 164.873 71.4124H169.497C169.467 71.6553 169.454 71.9 169.46 72.1446C169.46 74.1729 170.76 75.015 173.015 75.015C175.691 75.015 177.983 73.4444 178.441 70.9621L179.034 67.8684ZM180.524 59.6126C180.524 56.6837 179.378 55.4059 177.123 55.4059C173.491 55.4059 171.733 58.2726 171.733 62.3255C171.733 65.4997 173.07 66.6456 175.135 66.6456C177.924 66.6456 180.524 64.0828 180.524 59.6126Z" fill="#FF4D00"/>
<path id="Vector_15" d="M197.765 70.3911L199.815 58.7377C199.912 58.2086 199.964 57.6721 199.969 57.1341C199.969 55.3365 199.05 55.0326 197.253 55.0326C194.73 55.0326 193.05 57.0939 192.588 59.62L190.677 70.3984H185.724L190.234 44.7083H195.206L193.562 54.0368C194.591 52.3564 197.117 51.1079 199.64 51.1079C203.041 51.1079 205.219 52.8653 205.219 55.8491C205.216 56.2713 205.178 56.6925 205.106 57.1085L202.774 70.4131L197.765 70.3911Z" fill="#FF4D00"/>
<path id="Vector_16" d="M221.46 63.358C220.728 67.334 217.868 70.889 212.556 70.889C207.892 70.889 206.054 68.3665 206.054 65.1154C206.05 64.5128 206.102 63.9111 206.208 63.3178L209.137 46.4985H214.031L213.153 51.5838H223.55L222.939 55.1022H212.541L211.165 62.8235C211.063 63.3137 211.012 63.813 211.011 64.3136C211.011 65.9575 211.776 66.5689 213.38 66.5689C215.291 66.5689 216.517 65.2326 216.935 62.9077L217.777 58.0128H222.404L221.46 63.358Z" fill="#FF4D00"/>
<path id="Vector_17" d="M235.877 57.2731C235.877 55.3217 235.145 54.7872 232.97 54.7872C230.715 54.7872 229.569 55.2851 229.569 56.5848C229.569 57.5001 230.525 57.998 232.282 58.4959C237.635 60.0226 240.003 60.1764 240.003 64.2293C240.003 67.9746 236.525 70.8816 230.484 70.8816C225.553 70.8816 222.609 68.7398 222.609 65.3386C222.618 65.0056 222.644 64.6732 222.686 64.3428H227.812C227.782 64.5328 227.769 64.7252 227.775 64.9176C227.775 66.4479 229.112 67.1362 231.1 67.1362C233.088 67.1362 234.885 66.4845 234.885 64.9945C234.885 63.962 233.966 63.4641 232.249 63.0431C226.245 61.6665 224.641 60.0629 224.641 56.8191C224.641 54.0696 227.164 51.0858 233.776 51.0858C238.671 51.0858 240.732 52.9969 240.732 56.248C240.725 56.5933 240.699 56.9379 240.655 57.2804L235.877 57.2731Z" fill="#FF4D00"/>
</g>
<g id="Group 1000004926">
<path id="Vector_18" d="M29.9824 41.1138H30.6875C30.4612 41.0231 30.2087 41.0231 29.9824 41.1138Z" fill="#1B75BB"/>
<path id="Vector_19" d="M66.4894 38.8054C67.5017 38.7425 68.4519 38.2961 69.1465 37.557C69.841 36.818 70.2277 35.842 70.2277 34.8277C70.2277 33.8135 69.841 32.8375 69.1465 32.0984C68.4519 31.3594 67.5017 30.913 66.4894 30.8501H6.16101C5.11553 31.9467 3.98822 32.9623 2.78883 33.8881C0.029765 35.9758 -0.258404 37.4197 0.149324 38.7931H66.4894V38.8054Z" fill="#1B75BB"/>
<path id="Vector_20" d="M84.3882 41.1141H30.6876C31.7698 41.5831 31.6993 44.6181 30.5742 49.0663H84.3759C84.9208 49.1034 85.4675 49.0281 85.9821 48.845C86.4967 48.662 86.9681 48.3752 87.3672 48.0023C87.7663 47.6295 88.0845 47.1786 88.302 46.6776C88.5196 46.1766 88.6318 45.6363 88.6318 45.0902C88.6318 44.544 88.5196 44.0037 88.302 43.5027C88.0845 43.0018 87.7663 42.5509 87.3672 42.178C86.9681 41.8052 86.4967 41.5183 85.9821 41.3353C85.4675 41.1523 84.9208 41.077 84.3759 41.1141H84.3882Z" fill="#1B75BB"/>
<path id="Vector_21" d="M44.9258 10.2954H16.9336C15.5019 10.8779 15.6889 11.7424 21.1917 12.9502C21.1917 12.9502 17.2371 15.4242 14.291 18.2507H44.9258C45.4689 18.2844 46.0132 18.2066 46.5251 18.0219C47.037 17.8373 47.5056 17.5498 47.9021 17.1771C48.2987 16.8044 48.6147 16.3545 48.8307 15.8551C49.0467 15.3556 49.1582 14.8172 49.1582 14.273C49.1582 13.7289 49.0467 13.1905 48.8307 12.691C48.6147 12.1916 48.2987 11.7416 47.9021 11.369C47.5056 10.9963 47.037 10.7088 46.5251 10.5241C46.0132 10.3395 45.4689 10.2617 44.9258 10.2954Z" fill="#1B75BB"/>
<path id="Vector_22" d="M73.9461 69.6182C74.4892 69.652 75.0335 69.5741 75.5454 69.3895C76.0573 69.2048 76.5259 68.9173 76.9224 68.5447C77.319 68.172 77.635 67.7221 77.851 67.2226C78.067 66.7232 78.1785 66.1848 78.1785 65.6406C78.1785 65.0964 78.067 64.558 77.851 64.0586C77.635 63.5591 77.319 63.1092 76.9224 62.7365C76.5259 62.3638 76.0573 62.0763 75.5454 61.8917C75.0335 61.7071 74.4892 61.6292 73.9461 61.6629H26.0273C24.8471 64.2534 23.4859 66.9358 21.9531 69.6182H73.9461Z" fill="#1B75BB"/>
<path id="Vector_23" d="M27.737 7.96797C26.5613 5.07496 24.8468 2.43154 22.6848 0.178223C22.6848 0.178223 21.106 4.26163 22.1728 7.96797H27.737Z" fill="#1B75BB"/>
<path id="Vector_24" d="M58.6565 24.5378C58.6565 23.4808 58.2366 22.4672 57.4892 21.7198C56.7418 20.9724 55.7281 20.5525 54.6712 20.5525H12.2307C11.2773 21.8891 10.8358 23.1767 11.4152 24.2006C10.4318 25.6908 9.36429 27.1238 8.21777 28.4925H54.6773C55.7279 28.4909 56.7354 28.0745 57.4806 27.3339C58.2258 26.5933 58.6484 25.5884 58.6565 24.5378Z" fill="#1B75BB"/>
<path id="Vector_25" d="M13.9273 43.0201L18.584 41.1133H3.42452C2.70553 41.1137 2.00004 41.3086 1.38281 41.6774C1.42573 41.7908 1.46252 41.9073 1.49931 42.0238C2.32702 44.8411 2.72555 49.2341 7.71332 46.4996C7.71332 46.4996 10.9445 49.4824 13.9273 43.0201Z" fill="#1B75BB"/>
<path id="Vector_26" d="M12.2935 90.167C12.1054 90.9289 11.9813 91.7052 11.9226 92.4877C11.9164 92.599 11.9164 92.7106 11.9226 92.8219C11.9226 92.8219 12.0299 92.6992 12.2291 92.4877C13.0345 91.6663 13.8861 90.8915 14.7797 90.167C19.3507 86.4805 24.6275 83.768 30.2857 82.1964H15.1415C13.5014 85.8476 12.692 88.4687 12.2935 90.167Z" fill="#1B75BB"/>
<path id="Vector_27" d="M63.2566 55.3595C63.2566 54.3025 62.8367 53.2888 62.0894 52.5414C61.342 51.794 60.3283 51.3741 59.2713 51.3741H29.9333C29.1081 54.0804 28.14 56.741 27.0332 59.3448H59.2805C60.3359 59.3423 61.3472 58.9214 62.0926 58.1742C62.838 57.4271 63.2566 56.4148 63.2566 55.3595Z" fill="#1B75BB"/>
<path id="Vector_28" d="M60.7726 75.915C60.7726 74.858 60.3527 73.8443 59.6053 73.097C58.8579 72.3496 57.8443 71.9297 56.7873 71.9297H20.5915C18.795 74.9401 17.3664 77.5827 16.2383 79.885H56.7934C57.8467 79.8834 58.8565 79.4649 59.6021 78.721C60.3477 77.9771 60.7686 76.9682 60.7726 75.915Z" fill="#1B75BB"/>
<path id="Vector_29" d="M29.9824 41.1138H30.6875C30.4612 41.0231 30.2087 41.0231 29.9824 41.1138Z" fill="#FF4D00"/>
<path id="Vector_30" d="M66.4894 38.8054C67.5017 38.7425 68.4519 38.2961 69.1465 37.557C69.841 36.818 70.2277 35.842 70.2277 34.8277C70.2277 33.8135 69.841 32.8375 69.1465 32.0984C68.4519 31.3594 67.5017 30.913 66.4894 30.8501H6.16101C5.11553 31.9467 3.98822 32.9623 2.78883 33.8881C0.029765 35.9758 -0.258404 37.4197 0.149324 38.7931H66.4894V38.8054Z" fill="#FF4D00"/>
<path id="Vector_31" d="M84.3882 41.1141H30.6876C31.7698 41.5831 31.6993 44.6181 30.5742 49.0663H84.3759C84.9208 49.1034 85.4675 49.0281 85.9821 48.845C86.4967 48.662 86.9681 48.3752 87.3672 48.0023C87.7663 47.6295 88.0845 47.1786 88.302 46.6776C88.5196 46.1766 88.6318 45.6363 88.6318 45.0902C88.6318 44.544 88.5196 44.0037 88.302 43.5027C88.0845 43.0018 87.7663 42.5509 87.3672 42.178C86.9681 41.8052 86.4967 41.5183 85.9821 41.3353C85.4675 41.1523 84.9208 41.077 84.3759 41.1141H84.3882Z" fill="#FF4D00"/>
<path id="Vector_32" d="M44.9258 10.2954H16.9336C15.5019 10.8779 15.6889 11.7424 21.1917 12.9502C21.1917 12.9502 17.2371 15.4242 14.291 18.2507H44.9258C45.4689 18.2844 46.0132 18.2066 46.5251 18.0219C47.037 17.8373 47.5056 17.5498 47.9021 17.1771C48.2987 16.8044 48.6147 16.3545 48.8307 15.8551C49.0467 15.3556 49.1582 14.8172 49.1582 14.273C49.1582 13.7289 49.0467 13.1905 48.8307 12.691C48.6147 12.1916 48.2987 11.7416 47.9021 11.369C47.5056 10.9963 47.037 10.7088 46.5251 10.5241C46.0132 10.3395 45.4689 10.2617 44.9258 10.2954Z" fill="#FF4D00"/>
<path id="Vector_33" d="M73.9461 69.6182C74.4892 69.652 75.0335 69.5741 75.5454 69.3895C76.0573 69.2048 76.5259 68.9173 76.9224 68.5447C77.319 68.172 77.635 67.7221 77.851 67.2226C78.067 66.7232 78.1785 66.1848 78.1785 65.6406C78.1785 65.0964 78.067 64.558 77.851 64.0586C77.635 63.5591 77.319 63.1092 76.9224 62.7365C76.5259 62.3638 76.0573 62.0763 75.5454 61.8917C75.0335 61.7071 74.4892 61.6292 73.9461 61.6629H26.0273C24.8471 64.2534 23.4859 66.9358 21.9531 69.6182H73.9461Z" fill="#FF4D00"/>
<path id="Vector_34" d="M27.737 7.96797C26.5613 5.07496 24.8468 2.43154 22.6848 0.178223C22.6848 0.178223 21.106 4.26163 22.1728 7.96797H27.737Z" fill="#FF4D00"/>
<path id="Vector_35" d="M58.6565 24.5378C58.6565 23.4808 58.2366 22.4672 57.4892 21.7198C56.7418 20.9724 55.7281 20.5525 54.6712 20.5525H12.2307C11.2773 21.8891 10.8358 23.1767 11.4152 24.2006C10.4318 25.6908 9.36429 27.1238 8.21777 28.4925H54.6773C55.7279 28.4909 56.7354 28.0745 57.4806 27.3339C58.2258 26.5933 58.6484 25.5884 58.6565 24.5378Z" fill="#FF4D00"/>
<path id="Vector_36" d="M13.9273 43.0201L18.584 41.1133H3.42452C2.70553 41.1137 2.00004 41.3086 1.38281 41.6774C1.42573 41.7908 1.46252 41.9073 1.49931 42.0238C2.32702 44.8411 2.72555 49.2341 7.71332 46.4996C7.71332 46.4996 10.9445 49.4824 13.9273 43.0201Z" fill="#FF4D00"/>
<path id="Vector_37" d="M12.2935 90.167C12.1054 90.9289 11.9813 91.7052 11.9226 92.4877C11.9164 92.599 11.9164 92.7106 11.9226 92.8219C11.9226 92.8219 12.0299 92.6992 12.2291 92.4877C13.0345 91.6663 13.8861 90.8915 14.7797 90.167C19.3507 86.4805 24.6275 83.768 30.2857 82.1964H15.1415C13.5014 85.8476 12.692 88.4687 12.2935 90.167Z" fill="#FF4D00"/>
<path id="Vector_38" d="M63.2566 55.3595C63.2566 54.3025 62.8367 53.2888 62.0894 52.5414C61.342 51.794 60.3283 51.3741 59.2713 51.3741H29.9333C29.1081 54.0804 28.14 56.741 27.0332 59.3448H59.2805C60.3359 59.3423 61.3472 58.9214 62.0926 58.1742C62.838 57.4271 63.2566 56.4148 63.2566 55.3595Z" fill="#FF4D00"/>
<path id="Vector_39" d="M60.7726 75.915C60.7726 74.858 60.3527 73.8443 59.6053 73.097C58.8579 72.3496 57.8443 71.9297 56.7873 71.9297H20.5915C18.795 74.9401 17.3664 77.5827 16.2383 79.885H56.7934C57.8467 79.8834 58.8565 79.4649 59.6021 78.721C60.3477 77.9771 60.7686 76.9682 60.7726 75.915Z" fill="#FF4D00"/>
</g>
</g>
</svg>
