<svg width="186" height="68" viewBox="0 0 186 68" fill="none" xmlns="http://www.w3.org/2000/svg">
<g id="Group 1000004928">
<g id="Group 1000004927">
<path id="Vector" d="M73.2988 27.6954L75.718 14.0087H79.1124L78.806 15.6499C80.338 13.8142 81.7554 13.6463 83.2315 13.6463H83.7031L83.0636 17.3471C82.7326 17.291 82.3976 17.2624 82.0618 17.2618C79.8371 17.2618 78.5556 18.3755 78.1666 20.5736L76.9143 27.6954H73.2988Z" fill="black"/>
<path id="Vector_2" d="M90.1292 27.6954C90.0948 27.5027 90.0761 27.3076 90.0732 27.1119C90.0798 26.8979 90.0985 26.6844 90.1292 26.4725C88.9033 27.5324 87.3265 28.0976 85.7064 28.0577C82.9808 28.0577 81.7285 26.8055 81.7285 24.9405C81.7285 20.88 84.5927 19.9901 88.9622 19.404C91.4374 19.0709 91.5493 18.6047 91.5493 17.848C91.5493 16.6784 90.7686 16.4279 89.4631 16.4279C87.8192 16.4279 87.0146 17.2272 86.6522 18.4581H83.2872C83.8413 15.6206 85.733 13.6463 90.1292 13.6463C93.774 13.6463 95.1648 15.0105 95.1648 17.4856C95.1572 18.0079 95.1109 18.5289 95.0262 19.0443L93.4969 27.6954H90.1292ZM91.0484 20.9919C90.6301 21.3516 89.9613 21.5461 88.5705 21.7912C85.9835 22.2655 85.4559 22.9609 85.4559 24.2397C85.4559 25.103 86.1247 25.4653 87.0705 25.4653C88.821 25.4653 90.4622 24.1012 90.7686 22.4866L91.0484 20.9919Z" fill="black"/>
<path id="Vector_3" d="M105.346 18.9036C105.346 18.765 105.376 18.6531 105.376 18.5146C105.376 17.1531 104.401 16.6495 103.148 16.6495C101.23 16.6495 99.5329 18.0669 99.5329 21.8237C99.5329 24.2429 100.396 25.0209 101.563 25.0209C102.983 25.0209 104.227 24.2216 104.624 22.7375H108.269C107.801 24.279 106.848 25.6285 105.552 26.586C104.256 27.5434 102.687 28.0578 101.076 28.0529C97.905 28.0529 95.9014 26.1053 95.9014 22.3485C95.9014 16.487 99.1279 13.6415 103.719 13.6415C107.03 13.6415 109.034 15.3946 109.034 18.2321C109.038 18.4564 109.027 18.6807 109.002 18.9036H105.346Z" fill="black"/>
<path id="Vector_4" d="M112.773 21.7965V22.436C112.773 24.3836 113.689 25.1909 115.277 25.1909C116.444 25.1909 117.585 24.6074 118.003 23.6616H121.733C120.401 26.4725 117.867 28.0577 114.944 28.0577C111.105 28.0577 109.187 26.1101 109.187 22.4093C109.187 17.1233 112.357 13.6463 117.254 13.6463C120.704 13.6463 122.484 15.4821 122.484 19.1269C122.476 20.0205 122.393 20.9118 122.234 21.7912L112.773 21.7965ZM118.919 19.5159C118.964 19.2403 118.983 18.9611 118.975 18.6819C118.975 16.9288 117.864 16.5105 116.639 16.5105C114.803 16.5105 113.708 17.8187 113.188 19.5159H118.919Z" fill="black"/>
<path id="Vector_5" d="M134.471 22.5776C133.938 25.4711 131.854 28.0582 127.988 28.0582C124.594 28.0582 123.259 26.2225 123.259 23.8565C123.255 23.4179 123.293 22.9799 123.371 22.5483L125.502 10.3083H129.062L128.423 14.0091H135.989L135.544 16.5669H127.978L126.976 22.186C126.903 22.5438 126.866 22.9079 126.864 23.273C126.864 24.4693 127.421 24.9143 128.59 24.9143C129.981 24.9143 130.871 23.9391 131.177 22.2499L131.788 18.6904H135.155L134.471 22.5776Z" fill="black"/>
<path id="Vector_6" d="M135.056 27.6954L137.475 14.0087H140.869L140.563 15.6499C142.092 13.8142 143.512 13.6463 144.986 13.6463H145.46L144.82 17.3471C144.489 17.2911 144.154 17.2626 143.819 17.2618C141.594 17.2618 140.312 18.3755 139.923 20.5736L138.671 27.6954H135.056Z" fill="black"/>
<path id="Vector_7" d="M151.896 27.6954C151.861 27.5029 151.842 27.3077 151.841 27.1119C151.846 26.8978 151.864 26.6842 151.896 26.4725C150.671 27.5324 149.094 28.0976 147.474 28.0577C144.745 28.0577 143.493 26.8055 143.493 24.9405C143.493 20.88 146.36 19.9901 150.727 19.404C153.205 19.0709 153.314 18.6047 153.314 17.848C153.314 16.6784 152.536 16.4279 151.228 16.4279C149.587 16.4279 148.779 17.2272 148.42 18.4581H145.041C145.598 15.6206 147.49 13.6463 151.886 13.6463C155.531 13.6463 156.921 15.0105 156.921 17.4856C156.914 18.0079 156.868 18.5289 156.783 19.0443L155.251 27.6954H151.896ZM152.813 20.9919C152.397 21.3516 151.729 21.5461 150.338 21.7912C147.751 22.2655 147.223 22.9609 147.223 24.2397C147.223 25.103 147.889 25.4653 148.835 25.4653C150.588 25.4653 152.23 24.1012 152.536 22.4866L152.813 20.9919Z" fill="black"/>
<path id="Vector_8" d="M167.102 18.9035C167.102 18.765 167.129 18.6531 167.129 18.5146C167.129 17.1531 166.156 16.6495 164.904 16.6495C162.986 16.6495 161.289 18.0669 161.289 21.8237C161.289 24.2429 162.149 25.0209 163.319 25.0209C164.739 25.0209 165.983 24.2216 166.38 22.7375H170.014C169.546 24.2793 168.594 25.629 167.298 26.5865C166.002 27.544 164.432 28.0582 162.821 28.0529C159.65 28.0529 157.646 26.1053 157.646 22.3485C157.646 16.487 160.873 13.6415 165.464 13.6415C168.773 13.6415 170.776 15.3946 170.776 18.2321C170.781 18.4545 170.772 18.6769 170.75 18.8982L167.102 18.9035Z" fill="black"/>
<path id="Vector_9" d="M178.73 27.6957L176.783 21.4371L174.651 23.3555L173.863 27.6957H170.218L173.5 9H177.145L175.421 18.9593L180.673 14.009H185.202L179.721 19.0446L182.682 27.6957H178.73Z" fill="black"/>
<path id="Vector_10" d="M83.0508 51.0968L85.47 37.4101H89.0882L86.6663 51.0968H83.0508ZM85.7498 35.7688L86.3332 32.4011H89.9488L89.3653 35.7688H85.7498Z" fill="#FF4D00"/>
<path id="Vector_11" d="M97.0706 51.0965L98.544 42.8077C98.6183 42.4223 98.6557 42.0306 98.6559 41.6381C98.6559 40.4152 98.0458 40.1088 96.6816 40.1088C94.79 40.1088 93.6763 41.1745 93.3139 43.2527L91.9231 51.0965H88.3076L90.7268 37.4098H94.1905L93.8148 39.4187C94.9285 37.8867 96.4578 37.0528 98.6559 37.0528C100.939 37.0528 102.469 38.2784 102.469 40.559C102.467 40.9158 102.439 41.272 102.386 41.6248L100.715 51.1098L97.0706 51.0965Z" fill="#FF4D00"/>
<path id="Vector_12" d="M112.198 41.5502C112.198 40.1301 111.665 39.7411 110.082 39.7411C108.441 39.7411 107.607 40.1035 107.607 41.0493C107.607 41.7154 108.303 42.0778 109.581 42.4401C113.477 43.5511 115.203 43.663 115.203 46.6125C115.203 49.3381 112.669 51.4536 108.276 51.4536C104.687 51.4536 102.545 49.8949 102.545 47.4198C102.55 47.1773 102.569 46.9354 102.601 46.6951H106.331C106.307 46.8331 106.297 46.9733 106.302 47.1134C106.302 48.2271 107.277 48.7279 108.724 48.7279C110.17 48.7279 111.476 48.2537 111.476 47.1693C111.476 46.418 110.81 46.0556 109.557 45.7492C105.191 44.7474 104.021 43.5804 104.021 41.2198C104.021 39.2189 105.857 37.0475 110.682 37.0475C114.241 37.0475 115.744 38.4383 115.744 40.8042C115.74 41.0555 115.721 41.3064 115.688 41.5555L112.198 41.5502Z" fill="#FF4D00"/>
<path id="Vector_13" d="M115.513 51.0968L117.932 37.4101H121.55L119.126 51.0968H115.513ZM118.212 35.7688L118.795 32.4011H122.413L121.827 35.7688H118.212Z" fill="#FF4D00"/>
<path id="Vector_14" d="M130.647 49.2608C129.925 50.4837 128.31 51.2084 126.531 51.2084C122.83 51.2084 121.551 48.6214 121.551 45.7279C121.551 40.5804 125.167 37.0475 128.95 37.0475C130.674 37.0475 131.817 37.7162 132.414 39.107L132.72 37.4098H136.338L133.89 51.2351C133.165 55.3542 129.77 57.5789 125.96 57.5789C122.539 57.5789 120.229 55.8257 120.229 52.9056C120.24 52.5481 120.278 52.1919 120.341 51.8399H123.706C123.685 52.0166 123.676 52.1947 123.68 52.3728C123.68 53.8488 124.626 54.4616 126.267 54.4616C128.215 54.4616 129.882 53.3186 130.215 51.5122L130.647 49.2608ZM131.731 43.2527C131.731 41.1213 130.898 40.1914 129.256 40.1914C126.613 40.1914 125.334 42.2776 125.334 45.227C125.334 47.537 126.307 48.3709 127.81 48.3709C129.84 48.3709 131.731 46.5059 131.731 43.2527Z" fill="#FF4D00"/>
<path id="Vector_15" d="M144.278 51.0966L145.77 42.616C145.84 42.2309 145.878 41.8405 145.882 41.449C145.882 40.1408 145.213 39.9197 143.905 39.9197C142.069 39.9197 140.846 41.4197 140.51 43.2581L139.119 51.1019H135.515L138.797 32.4062H142.415L141.219 39.195C141.968 37.972 143.806 37.0635 145.642 37.0635C148.117 37.0635 149.702 38.3424 149.702 40.5138C149.7 40.8211 149.672 41.1276 149.62 41.4303L147.922 51.1126L144.278 51.0966Z" fill="#FF4D00"/>
<path id="Vector_16" d="M161.522 45.9783C160.989 48.8718 158.908 51.4589 155.043 51.4589C151.648 51.4589 150.311 49.6231 150.311 47.2572C150.308 46.8187 150.346 46.3808 150.423 45.949L152.554 33.709H156.116L155.477 37.4098H163.044L162.599 39.9702H155.032L154.03 45.5893C153.956 45.9461 153.919 46.3094 153.918 46.6737C153.918 47.87 154.475 48.315 155.642 48.315C157.033 48.315 157.925 47.3425 158.229 45.6506L158.842 42.0884H162.21L161.522 45.9783Z" fill="#FF4D00"/>
<path id="Vector_17" d="M172.014 41.5502C172.014 40.1301 171.481 39.7411 169.898 39.7411C168.257 39.7411 167.423 40.1035 167.423 41.0493C167.423 41.7154 168.119 42.0778 169.398 42.4401C173.293 43.5511 175.017 43.663 175.017 46.6125C175.017 49.3381 172.486 51.4536 168.089 51.4536C164.501 51.4536 162.358 49.8949 162.358 47.4198C162.365 47.1774 162.383 46.9355 162.414 46.6951H166.144C166.122 46.8333 166.113 46.9734 166.118 47.1134C166.118 48.2271 167.09 48.7279 168.537 48.7279C169.984 48.7279 171.292 48.2537 171.292 47.1693C171.292 46.418 170.623 46.0556 169.374 45.7492C165.004 44.7474 163.837 43.5804 163.837 41.2198C163.837 39.2189 165.673 37.0475 170.485 37.0475C174.047 37.0475 175.547 38.4383 175.547 40.8042C175.541 41.0555 175.523 41.3063 175.491 41.5555L172.014 41.5502Z" fill="#FF4D00"/>
</g>
<g id="Group 1000004926">
<path id="Vector_18" d="M22.1768 29.7902H22.6899C22.5252 29.7242 22.3414 29.7242 22.1768 29.7902Z" fill="#1B75BB"/>
<path id="Vector_19" d="M48.7442 28.1104C49.4809 28.0647 50.1724 27.7398 50.6778 27.202C51.1833 26.6641 51.4647 25.9538 51.4647 25.2158C51.4647 24.4777 51.1833 23.7674 50.6778 23.2295C50.1724 22.6917 49.4809 22.3668 48.7442 22.3211H4.84102C4.08018 23.1191 3.25979 23.8582 2.38695 24.532C0.379083 26.0513 0.169372 27.102 0.46609 28.1015H48.7442V28.1104Z" fill="#1B75BB"/>
<path id="Vector_20" d="M61.7698 29.7903H22.69C23.4775 30.1317 23.4262 32.3403 22.6074 35.5775H61.7609C62.1574 35.6044 62.5553 35.5496 62.9298 35.4164C63.3042 35.2832 63.6473 35.0745 63.9378 34.8032C64.2282 34.5318 64.4597 34.2037 64.618 33.8391C64.7764 33.4746 64.8581 33.0813 64.8581 32.6839C64.8581 32.2864 64.7764 31.8932 64.618 31.5287C64.4597 31.1641 64.2282 30.836 63.9378 30.5646C63.6473 30.2933 63.3042 30.0845 62.9298 29.9513C62.5553 29.8181 62.1574 29.7633 61.7609 29.7903H61.7698Z" fill="#1B75BB"/>
<path id="Vector_21" d="M33.0519 7.36248H12.6809C11.639 7.78636 11.7751 8.4155 15.7797 9.2945C15.7797 9.2945 12.9018 11.0949 10.7578 13.1518H33.0519C33.4471 13.1764 33.8432 13.1197 34.2157 12.9854C34.5882 12.851 34.9293 12.6418 35.2179 12.3706C35.5064 12.0994 35.7364 11.7719 35.8936 11.4085C36.0508 11.045 36.1319 10.6532 36.1319 10.2572C36.1319 9.86115 36.0508 9.46934 35.8936 9.10586C35.7364 8.74239 35.5064 8.41497 35.2179 8.14376C34.9293 7.87256 34.5882 7.66333 34.2157 7.52896C33.8432 7.39459 33.4471 7.33793 33.0519 7.36248Z" fill="#1B75BB"/>
<path id="Vector_22" d="M54.1702 50.5339C54.5654 50.5584 54.9615 50.5018 55.3341 50.3674C55.7066 50.233 56.0476 50.0238 56.3362 49.7526C56.6248 49.4814 56.8547 49.1539 57.0119 48.7905C57.1691 48.427 57.2502 48.0352 57.2502 47.6392C57.2502 47.2432 57.1691 46.8514 57.0119 46.4879C56.8547 46.1244 56.6248 45.797 56.3362 45.5258C56.0476 45.2546 55.7066 45.0453 55.3341 44.911C54.9615 44.7766 54.5654 44.72 54.1702 44.7445H19.298C18.439 46.6297 17.4485 48.5818 16.333 50.5339H54.1702Z" fill="#1B75BB"/>
<path id="Vector_23" d="M20.5422 5.66898C19.6866 3.56363 18.4389 1.63991 16.8655 9.15527e-05C16.8655 9.15527e-05 15.7166 2.97174 16.493 5.66898H20.5422Z" fill="#1B75BB"/>
<path id="Vector_24" d="M43.044 17.7274C43.044 16.9582 42.7384 16.2205 42.1945 15.6766C41.6506 15.1327 40.9129 14.8271 40.1437 14.8271H9.25823C8.5644 15.7998 8.24314 16.7369 8.66479 17.482C7.94915 18.5665 7.17225 19.6093 6.33789 20.6054H40.1482C40.9128 20.6042 41.646 20.3012 42.1883 19.7622C42.7306 19.2233 43.0381 18.492 43.044 17.7274Z" fill="#1B75BB"/>
<path id="Vector_25" d="M10.4924 31.1778L13.8812 29.7902H2.8491C2.32587 29.7905 1.81246 29.9323 1.36328 30.2007C1.39451 30.2832 1.42129 30.368 1.44806 30.4528C2.05042 32.503 2.34044 35.7 5.97023 33.71C5.97023 33.71 8.32167 35.8807 10.4924 31.1778Z" fill="#1B75BB"/>
<path id="Vector_26" d="M9.30357 65.4879C9.16667 66.0424 9.07637 66.6073 9.03362 67.1768C9.02916 67.2578 9.02916 67.339 9.03362 67.42C9.03362 67.42 9.1117 67.3307 9.25672 67.1768C9.84283 66.579 10.4626 66.0151 11.1129 65.4879C14.4393 62.8051 18.2795 60.8311 22.3971 59.6874H11.3761C10.1826 62.3445 9.59359 64.252 9.30357 65.4879Z" fill="#1B75BB"/>
<path id="Vector_27" d="M46.3914 40.1574C46.3914 39.3882 46.0858 38.6505 45.5419 38.1066C44.998 37.5627 44.2603 37.2571 43.4911 37.2571H22.1408C21.5402 39.2266 20.8357 41.1628 20.0303 43.0577H43.4978C44.2658 43.0559 45.0018 42.7495 45.5443 42.2058C46.0867 41.6621 46.3914 40.9254 46.3914 40.1574Z" fill="#1B75BB"/>
<path id="Vector_28" d="M44.5841 55.1163C44.5841 54.3471 44.2785 53.6094 43.7346 53.0655C43.1907 52.5216 42.453 52.216 41.6838 52.216H15.3428C14.0354 54.4068 12.9958 56.3299 12.1748 58.0054H41.6883C42.4548 58.0042 43.1896 57.6996 43.7322 57.1583C44.2749 56.6169 44.5811 55.8827 44.5841 55.1163Z" fill="#1B75BB"/>
<path id="Vector_29" d="M22.1768 29.7902H22.6899C22.5252 29.7242 22.3414 29.7242 22.1768 29.7902Z" fill="#FF4D00"/>
<path id="Vector_30" d="M48.7442 28.1104C49.4809 28.0647 50.1724 27.7398 50.6778 27.202C51.1833 26.6641 51.4647 25.9538 51.4647 25.2158C51.4647 24.4777 51.1833 23.7674 50.6778 23.2295C50.1724 22.6917 49.4809 22.3668 48.7442 22.3211H4.84102C4.08018 23.1191 3.25979 23.8582 2.38695 24.532C0.379083 26.0513 0.169372 27.102 0.46609 28.1015H48.7442V28.1104Z" fill="#FF4D00"/>
<path id="Vector_31" d="M61.7698 29.7903H22.69C23.4775 30.1317 23.4262 32.3403 22.6074 35.5775H61.7609C62.1574 35.6044 62.5553 35.5496 62.9298 35.4164C63.3042 35.2832 63.6473 35.0745 63.9378 34.8032C64.2282 34.5318 64.4597 34.2037 64.618 33.8391C64.7764 33.4746 64.8581 33.0813 64.8581 32.6839C64.8581 32.2864 64.7764 31.8932 64.618 31.5287C64.4597 31.1641 64.2282 30.836 63.9378 30.5646C63.6473 30.2933 63.3042 30.0845 62.9298 29.9513C62.5553 29.8181 62.1574 29.7633 61.7609 29.7903H61.7698Z" fill="#FF4D00"/>
<path id="Vector_32" d="M33.0519 7.36248H12.6809C11.639 7.78636 11.7751 8.4155 15.7797 9.2945C15.7797 9.2945 12.9018 11.0949 10.7578 13.1518H33.0519C33.4471 13.1764 33.8432 13.1197 34.2157 12.9854C34.5882 12.851 34.9293 12.6418 35.2179 12.3706C35.5064 12.0994 35.7364 11.7719 35.8936 11.4085C36.0508 11.045 36.1319 10.6532 36.1319 10.2572C36.1319 9.86115 36.0508 9.46934 35.8936 9.10586C35.7364 8.74239 35.5064 8.41497 35.2179 8.14376C34.9293 7.87256 34.5882 7.66333 34.2157 7.52896C33.8432 7.39459 33.4471 7.33793 33.0519 7.36248Z" fill="#FF4D00"/>
<path id="Vector_33" d="M54.1702 50.5339C54.5654 50.5584 54.9615 50.5018 55.3341 50.3674C55.7066 50.233 56.0476 50.0238 56.3362 49.7526C56.6248 49.4814 56.8547 49.1539 57.0119 48.7905C57.1691 48.427 57.2502 48.0352 57.2502 47.6392C57.2502 47.2432 57.1691 46.8514 57.0119 46.4879C56.8547 46.1244 56.6248 45.797 56.3362 45.5258C56.0476 45.2546 55.7066 45.0453 55.3341 44.911C54.9615 44.7766 54.5654 44.72 54.1702 44.7445H19.298C18.439 46.6297 17.4485 48.5818 16.333 50.5339H54.1702Z" fill="#FF4D00"/>
<path id="Vector_34" d="M20.5422 5.66898C19.6866 3.56363 18.4389 1.63991 16.8655 9.15527e-05C16.8655 9.15527e-05 15.7166 2.97174 16.493 5.66898H20.5422Z" fill="#FF4D00"/>
<path id="Vector_35" d="M43.044 17.7274C43.044 16.9582 42.7384 16.2205 42.1945 15.6766C41.6506 15.1327 40.9129 14.8271 40.1437 14.8271H9.25823C8.5644 15.7998 8.24314 16.7369 8.66479 17.482C7.94915 18.5665 7.17225 19.6093 6.33789 20.6054H40.1482C40.9128 20.6042 41.646 20.3012 42.1883 19.7622C42.7306 19.2233 43.0381 18.492 43.044 17.7274Z" fill="#FF4D00"/>
<path id="Vector_36" d="M10.4924 31.1778L13.8812 29.7902H2.8491C2.32587 29.7905 1.81246 29.9323 1.36328 30.2007C1.39451 30.2832 1.42129 30.368 1.44806 30.4528C2.05042 32.503 2.34044 35.7 5.97023 33.71C5.97023 33.71 8.32167 35.8807 10.4924 31.1778Z" fill="#FF4D00"/>
<path id="Vector_37" d="M9.30357 65.4879C9.16667 66.0424 9.07637 66.6073 9.03362 67.1768C9.02916 67.2578 9.02916 67.339 9.03362 67.42C9.03362 67.42 9.1117 67.3307 9.25672 67.1768C9.84283 66.579 10.4626 66.0151 11.1129 65.4879C14.4393 62.8051 18.2795 60.8311 22.3971 59.6874H11.3761C10.1826 62.3445 9.59359 64.252 9.30357 65.4879Z" fill="#FF4D00"/>
<path id="Vector_38" d="M46.3914 40.1574C46.3914 39.3882 46.0858 38.6505 45.5419 38.1066C44.998 37.5627 44.2603 37.2571 43.4911 37.2571H22.1408C21.5402 39.2266 20.8357 41.1628 20.0303 43.0577H43.4978C44.2658 43.0559 45.0018 42.7495 45.5443 42.2058C46.0867 41.6621 46.3914 40.9254 46.3914 40.1574Z" fill="#FF4D00"/>
<path id="Vector_39" d="M44.5841 55.1163C44.5841 54.3471 44.2785 53.6094 43.7346 53.0655C43.1907 52.5216 42.453 52.216 41.6838 52.216H15.3428C14.0354 54.4068 12.9958 56.3299 12.1748 58.0054H41.6883C42.4548 58.0042 43.1896 57.6996 43.7322 57.1583C44.2749 56.6169 44.5811 55.8827 44.5841 55.1163Z" fill="#FF4D00"/>
</g>
</g>
</svg>
