<svg width="13" height="13" viewBox="0 0 13 13" fill="none" xmlns="http://www.w3.org/2000/svg">
<path id="Vector" d="M4.3803 1.34782H4.25387C4.3234 1.34782 4.3803 1.29093 4.3803 1.22139V1.34782H9.18458V1.22139C9.18458 1.29093 9.24147 1.34782 9.31101 1.34782H9.18458V2.48568H10.3224V1.22139C10.3224 0.663523 9.86888 0.209961 9.31101 0.209961H4.25387C3.696 0.209961 3.24244 0.663523 3.24244 1.22139V2.48568H4.3803V1.34782ZM12.3453 2.48568H1.21958C0.939858 2.48568 0.713867 2.71167 0.713867 2.99139V3.4971C0.713867 3.56664 0.77076 3.62353 0.840296 3.62353H1.79483L2.18518 11.8888C2.21047 12.4277 2.65613 12.8528 3.19503 12.8528H10.3698C10.9103 12.8528 11.3544 12.4293 11.3797 11.8888L11.77 3.62353H12.7246C12.7941 3.62353 12.851 3.56664 12.851 3.4971V2.99139C12.851 2.71167 12.625 2.48568 12.3453 2.48568ZM10.2482 11.715H3.31672L2.93427 3.62353H10.6306L10.2482 11.715Z" fill="#CF1B2B"/>
</svg>
