<svg width="15" height="17" viewBox="0 0 15 17" fill="none" xmlns="http://www.w3.org/2000/svg">
<g clip-path="url(#clip0_734_22)">
<path d="M3.83807 5.923V14.7749H0.890417V5.923H3.83807ZM4.02565 3.18972C4.03161 3.62442 3.88125 3.98767 3.57457 4.27946C3.26789 4.57125 2.86445 4.71714 2.36424 4.71714H2.34638C1.85808 4.71714 1.46506 4.57125 1.16732 4.27946C0.869575 3.98767 0.720703 3.62442 0.720703 3.18972C0.720703 2.74906 0.874041 2.38433 1.18072 2.09551C1.48739 1.8067 1.88786 1.6623 2.38211 1.6623C2.87636 1.6623 3.27236 1.8067 3.5701 2.09551C3.86785 2.38433 4.0197 2.74906 4.02565 3.18972ZM14.4407 9.70136V14.7749H11.502V10.0408C11.502 9.41553 11.3814 8.92574 11.1402 8.57143C10.899 8.21711 10.5224 8.03995 10.0103 8.03995C9.63513 8.03995 9.32101 8.14268 9.06793 8.34812C8.81485 8.55356 8.62578 8.80813 8.50073 9.11183C8.43523 9.29048 8.40247 9.53165 8.40247 9.83535V14.7749H5.46375C5.47566 12.3989 5.48161 10.4725 5.48161 8.99571C5.48161 7.5189 5.47864 6.63758 5.47268 6.35175L5.46375 5.923H8.40247V7.20925H8.38461C8.50371 7.0187 8.62578 6.85196 8.75083 6.70904C8.87589 6.56613 9.04411 6.4113 9.25551 6.24456C9.46691 6.07783 9.72594 5.94831 10.0326 5.85601C10.3393 5.76371 10.6802 5.71756 11.0554 5.71756C12.0736 5.71756 12.8924 6.0555 13.5117 6.73137C14.1311 7.40725 14.4407 8.39725 14.4407 9.70136Z" fill="white"/>
</g>
<defs>
<clipPath id="clip0_734_22">
<rect width="13.72" height="17" fill="white" transform="matrix(1 0 0 -1 0.720703 17)"/>
</clipPath>
</defs>
</svg>
