<svg width="21" height="21" viewBox="0 0 21 21" fill="none" xmlns="http://www.w3.org/2000/svg">
<g id="ant-design:minus-circle-outlined">
<path id="Vector" d="M13.2891 9.64551H7.53906C7.47031 9.64551 7.41406 9.70176 7.41406 9.77051V10.5205C7.41406 10.5893 7.47031 10.6455 7.53906 10.6455H13.2891C13.3578 10.6455 13.4141 10.5893 13.4141 10.5205V9.77051C13.4141 9.70176 13.3578 9.64551 13.2891 9.64551Z" fill="#040415"/>
<path id="Vector_2" d="M10.4141 1.89551C5.58203 1.89551 1.66406 5.81348 1.66406 10.6455C1.66406 15.4775 5.58203 19.3955 10.4141 19.3955C15.2461 19.3955 19.1641 15.4775 19.1641 10.6455C19.1641 5.81348 15.2461 1.89551 10.4141 1.89551ZM10.4141 17.9111C6.40234 17.9111 3.14844 14.6572 3.14844 10.6455C3.14844 6.63379 6.40234 3.37988 10.4141 3.37988C14.4258 3.37988 17.6797 6.63379 17.6797 10.6455C17.6797 14.6572 14.4258 17.9111 10.4141 17.9111Z" fill="#CCCCCC"/>
</g>
</svg>
