<svg width="15" height="17" viewBox="0 0 15 17" fill="none" xmlns="http://www.w3.org/2000/svg">
<g clip-path="url(#clip0_734_24)">
<path d="M13.5207 4.90022C13.5207 4.90022 13.674 5.16297 13.9807 5.68849C14.2874 6.21401 14.4407 7.09905 14.4407 8.34361C14.4407 9.58818 14.134 10.736 13.5207 11.787C12.9073 12.838 12.0751 13.6702 11.0241 14.2836C9.97307 14.8969 8.82527 15.2036 7.5807 15.2036C6.91971 15.2036 6.27063 15.1083 5.63346 14.9178C5.9848 14.364 6.21704 13.8757 6.33018 13.4529C6.38378 13.2504 6.54456 12.6222 6.81253 11.5682C6.93162 11.8004 7.14898 12.0014 7.46458 12.1711C7.78019 12.3408 8.11962 12.4257 8.48286 12.4257C9.2034 12.4257 9.84653 12.2217 10.4122 11.8138C10.978 11.4059 11.4156 10.8447 11.7253 10.1301C12.0349 9.41549 12.1898 8.61158 12.1898 7.71835C12.1898 7.0395 12.0126 6.40233 11.6583 5.80684C11.304 5.21136 10.7904 4.72604 10.1175 4.35088C9.44457 3.97572 8.68533 3.78815 7.83974 3.78815C7.21448 3.78815 6.6309 3.87449 6.08901 4.04718C5.54712 4.21987 5.0871 4.44913 4.70897 4.73497C4.33084 5.0208 4.0063 5.34981 3.73535 5.72199C3.46441 6.09416 3.26492 6.47974 3.13689 6.87872C3.00886 7.27769 2.94484 7.67667 2.94484 8.07564C2.94484 8.69495 3.06394 9.23982 3.30214 9.71025C3.54033 10.1807 3.88869 10.5112 4.34721 10.7017C4.52586 10.7732 4.639 10.7136 4.68664 10.5231C4.69855 10.4814 4.72237 10.3891 4.7581 10.2462C4.79383 10.1033 4.81765 10.014 4.82956 9.97822C4.86529 9.84126 4.83253 9.71323 4.7313 9.59413C4.4276 9.23089 4.27576 8.7813 4.27576 8.24536C4.27576 7.34617 4.5869 6.57353 5.20918 5.92743C5.83146 5.28133 6.64579 4.95827 7.65216 4.95827C8.55135 4.95827 9.25253 5.20242 9.75572 5.69072C10.2589 6.17902 10.5105 6.81321 10.5105 7.5933C10.5105 8.60563 10.3065 9.4661 9.89863 10.1747C9.49072 10.8834 8.96819 11.2377 8.33102 11.2377C7.96777 11.2377 7.67598 11.1082 7.45565 10.8491C7.23532 10.5901 7.16684 10.2789 7.25021 9.9157C7.29785 9.70728 7.37675 9.42889 7.48691 9.08053C7.59708 8.73217 7.6864 8.42549 7.75488 8.1605C7.82336 7.89551 7.8576 7.67071 7.8576 7.48611C7.8576 7.18837 7.77721 6.94124 7.61643 6.74473C7.45565 6.54822 7.22639 6.44997 6.92865 6.44997C6.55944 6.44997 6.24681 6.61968 5.99076 6.95911C5.7347 7.29854 5.60667 7.72133 5.60667 8.22749C5.60667 8.6622 5.6811 9.02544 5.82997 9.31723L4.94568 13.0509C4.84444 13.4678 4.80574 13.9948 4.82956 14.6319C3.60286 14.0901 2.61137 13.2534 1.8551 12.122C1.09884 10.9905 0.720703 9.7311 0.720703 8.34361C0.720703 7.09905 1.02738 5.95125 1.64073 4.90022C2.25408 3.84918 3.08627 3.01699 4.1373 2.40364C5.18834 1.79029 6.33614 1.48361 7.5807 1.48361C8.82527 1.48361 9.97307 1.79029 11.0241 2.40364C12.0751 3.01699 12.9073 3.84918 13.5207 4.90022Z" fill="white"/>
</g>
<defs>
<clipPath id="clip0_734_24">
<rect width="13.72" height="17" fill="white" transform="matrix(1 0 0 -1 0.720703 17)"/>
</clipPath>
</defs>
</svg>
