<svg width="21" height="21" viewBox="0 0 21 21" fill="none" xmlns="http://www.w3.org/2000/svg">
<g id="ant-design:plus-circle-outlined">
<path id="Vector" d="M12.9629 9.72266H10.5879V7.34766C10.5879 7.27891 10.5316 7.22266 10.4629 7.22266H9.71289C9.64414 7.22266 9.58789 7.27891 9.58789 7.34766V9.72266H7.21289C7.14414 9.72266 7.08789 9.77891 7.08789 9.84766V10.5977C7.08789 10.6664 7.14414 10.7227 7.21289 10.7227H9.58789V13.0977C9.58789 13.1664 9.64414 13.2227 9.71289 13.2227H10.4629C10.5316 13.2227 10.5879 13.1664 10.5879 13.0977V10.7227H12.9629C13.0316 10.7227 13.0879 10.6664 13.0879 10.5977V9.84766C13.0879 9.77891 13.0316 9.72266 12.9629 9.72266Z" fill="#040415"/>
<path id="Vector_2" d="M10.0879 1.47266C5.25586 1.47266 1.33789 5.39062 1.33789 10.2227C1.33789 15.0547 5.25586 18.9727 10.0879 18.9727C14.9199 18.9727 18.8379 15.0547 18.8379 10.2227C18.8379 5.39062 14.9199 1.47266 10.0879 1.47266ZM10.0879 17.4883C6.07617 17.4883 2.82227 14.2344 2.82227 10.2227C2.82227 6.21094 6.07617 2.95703 10.0879 2.95703C14.0996 2.95703 17.3535 6.21094 17.3535 10.2227C17.3535 14.2344 14.0996 17.4883 10.0879 17.4883Z" fill="#CCCCCC"/>
</g>
</svg>
