<svg width="16" height="16" viewBox="0 0 16 16" fill="none" xmlns="http://www.w3.org/2000/svg">
<path id="Vector" d="M13.9027 0.5H2.236C1.79398 0.5 1.37005 0.675595 1.05749 0.988155C0.744931 1.30072 0.569336 1.72464 0.569336 2.16667V13.8333C0.569336 14.2754 0.744931 14.6993 1.05749 15.0118C1.37005 15.3244 1.79398 15.5 2.236 15.5H13.9027C14.3447 15.5 14.7686 15.3244 15.0812 15.0118C15.3937 14.6993 15.5693 14.2754 15.5693 13.8333V2.16667C15.5693 1.72464 15.3937 1.30072 15.0812 0.988155C14.7686 0.675595 14.3447 0.5 13.9027 0.5ZM13.9027 2.16667V13.8333H2.236V2.16667H13.9027ZM6.40267 12.1667L3.06934 8.83333L4.24434 7.65L6.40267 9.80833L11.8943 4.31667L13.0693 5.5" fill="black"/>
</svg>
