<svg width="25" height="20" viewBox="0 0 25 20" fill="none" xmlns="http://www.w3.org/2000/svg">
<path d="M2.5 20C1.8125 20 1.22375 19.755 0.733752 19.265C0.243752 18.775 -0.000831211 18.1867 2.12224e-06 17.5V2.5C2.12224e-06 1.8125 0.245002 1.22375 0.735002 0.733752C1.225 0.243752 1.81333 -0.000831211 2.5 2.12224e-06H8.96875C9.30208 2.12224e-06 9.62 0.0625022 9.9225 0.187502C10.225 0.312502 10.4904 0.489585 10.7187 0.718752L12.5 2.5H22.5C23.1875 2.5 23.7762 2.745 24.2662 3.235C24.7562 3.725 25.0008 4.31333 25 5V17.5C25 18.1875 24.755 18.7762 24.265 19.2662C23.775 19.7562 23.1867 20.0008 22.5 20H2.5ZM15 12.5V13.75C15 14.1042 15.12 14.4012 15.36 14.6412C15.6 14.8813 15.8967 15.0008 16.25 15C16.6042 15 16.9012 14.88 17.1412 14.64C17.3812 14.4 17.5008 14.1033 17.5 13.75V12.5H18.75C19.1042 12.5 19.4012 12.38 19.6412 12.14C19.8812 11.9 20.0008 11.6033 20 11.25C20 10.8958 19.88 10.5988 19.64 10.3588C19.4 10.1187 19.1033 9.99917 18.75 10H17.5V8.75C17.5 8.39583 17.38 8.09875 17.14 7.85875C16.9 7.61875 16.6033 7.49917 16.25 7.5C15.8958 7.5 15.5987 7.62 15.3587 7.86C15.1187 8.1 14.9992 8.39667 15 8.75V10H13.75C13.3958 10 13.0987 10.12 12.8587 10.36C12.6187 10.6 12.4992 10.8967 12.5 11.25C12.5 11.6042 12.62 11.9013 12.86 12.1413C13.1 12.3813 13.3967 12.5008 13.75 12.5H15Z" fill="white"/>
</svg>
