<svg width="17" height="17" viewBox="0 0 17 17" fill="none" xmlns="http://www.w3.org/2000/svg">
<g clip-path="url(#clip0_734_26)">
<path d="M15.1069 4.96868C15.0473 6.37344 14.0592 8.31094 12.1426 10.7812C10.1604 13.3467 8.48782 14.6294 7.12472 14.6294C6.27948 14.6294 5.5652 13.8467 4.98186 12.2812C4.71996 11.3288 4.3271 9.89428 3.80329 7.97761C3.37472 6.41808 2.90746 5.63832 2.40151 5.63832C2.29436 5.63832 1.91639 5.86451 1.26758 6.31689L0.580078 5.44189C0.722935 5.31689 1.04436 5.02969 1.54436 4.58029C2.04436 4.13088 2.43127 3.78713 2.70508 3.54904C3.63365 2.72761 4.35091 2.29308 4.85686 2.24547C5.42234 2.19189 5.8777 2.35707 6.22294 2.741C6.56817 3.12493 6.80925 3.73058 6.94615 4.55797C7.20805 6.2663 7.40448 7.37642 7.53544 7.88832C7.86282 9.37047 8.21996 10.1115 8.60686 10.1115C8.91044 10.1115 9.36877 9.63237 9.98186 8.67404C10.5831 7.7157 10.9075 6.98356 10.9551 6.47761C11.0325 5.65023 10.7081 5.23654 9.98186 5.23654C9.64258 5.23654 9.28246 5.31392 8.90151 5.46868C9.61579 3.12939 10.9819 1.99249 12.9997 2.05797C14.4938 2.10558 15.1961 3.07582 15.1069 4.96868Z" fill="white"/>
</g>
<defs>
<clipPath id="clip0_734_26">
<rect width="16" height="17" fill="white" transform="matrix(1 0 0 -1 0.580078 17)"/>
</clipPath>
</defs>
</svg>
